<?xml version="1.0" standalone="no"?>
<!DOCTYPE svg PUBLIC "-//W3C//DTD SVG 20010904//EN"
 "http://www.w3.org/TR/2001/REC-SVG-20010904/DTD/svg10.dtd">
<svg version="1.0" xmlns="http://www.w3.org/2000/svg"
 width="80.000000pt" height="80.000000pt" viewBox="0 0 80.000000 80.000000"
 preserveAspectRatio="xMidYMid meet">
<metadata>
Created by potrace 1.16, written by Peter Selinger 2001-2019
</metadata>
<g transform="translate(0.000000,80.000000) scale(0.100000,-0.100000)"
fill="#000000" stroke="none">
<path d="M416 657 c-25 -33 -51 -131 -39 -150 2 -4 -33 -42 -79 -86 l-83 -78
50 -1 c43 -1 54 3 82 30 18 18 33 36 33 42 0 6 19 30 42 53 56 57 36 55 -29
-3 -37 -32 -52 -52 -50 -67 1 -17 -3 -22 -20 -22 -13 0 -28 -6 -35 -13 -17
-17 -29 -15 -22 3 4 8 10 15 14 15 4 0 41 34 81 75 54 56 79 75 99 75 19 0 26
-5 27 -20 1 -11 -4 -20 -12 -20 -15 0 -75 -65 -75 -82 0 -7 -12 -25 -27 -40
-15 -15 -22 -28 -17 -28 16 0 97 87 90 98 -3 5 3 17 14 27 11 10 20 13 20 7 0
-6 -4 -13 -10 -17 -5 -3 -6 -13 -3 -21 3 -10 -9 -30 -33 -55 -22 -22 -32 -39
-24 -38 8 0 31 20 50 43 19 24 39 41 43 38 5 -2 -8 -22 -29 -43 -28 -29 -33
-39 -21 -39 9 0 17 7 17 15 0 28 45 47 93 40 54 -8 83 0 97 25 9 17 4 24 -30
46 -22 15 -40 35 -40 44 0 18 -17 37 -35 40 -5 1 -12 4 -15 7 -3 4 2 2 10 -2
13 -8 13 -7 1 8 -7 9 -21 17 -30 17 -24 0 -61 37 -61 60 0 24 -15 27 -24 5 -3
-8 -1 -15 5 -15 15 0 6 -63 -9 -68 -17 -5 -10 81 8 104 7 8 10 17 7 20 -3 3
-17 -10 -31 -29z"/>
</g>
</svg>
